HIERARCHY
ROOT Hips
{
	OFFSET 0.000000 71.427986 0.000000
	CHANNELS 6 Xposition Yposition Zposition Xrotation Yrotation Zrotation
	JOINT Pelvis
	{
		OFFSET 0.000000 0.000000 0.000000
		CHANNELS 3 Xrotation Yrotation Zrotation
		JOINT LeftUpLeg
		{
			OFFSET 6.797100 -2.508499 -1.318700
			CHANNELS 3 Xrotation Yrotation Zrotation
			JOINT LeftLeg
			{
				OFFSET 0.069008 -29.241863 0.690200
				CHANNELS 3 Xrotation Yrotation Zrotation
				JOINT LeftFoot
				{
					OFFSET -0.069008 -29.568123 -0.266800
					CHANNELS 3 Xrotation Yrotation Zrotation
					JOINT LeftToeBase
					{
						OFFSET 3.145500 -8.631000 16.059900
						CHANNELS 3 Xrotation Yrotation Zrotation
						End Site
						{
							OFFSET 0.000000 18.501587 0.000000
						}
					}
				}
			}
			JOINT Left_ShortSleeve
			{
				OFFSET 0.265923 -10.480953 1.153800
				CHANNELS 3 Xrotation Yrotation Zrotation
				End Site
				{
					OFFSET 1.725763 19.823879 0.000000
				}
			}
		}
		JOINT RightUpLeg
		{
			OFFSET -6.797100 -2.508499 -1.318700
			CHANNELS 3 Xrotation Yrotation Zrotation
			JOINT RightLeg
			{
				OFFSET -0.082453 -29.241932 0.688000
				CHANNELS 3 Xrotation Yrotation Zrotation
				JOINT RightFoot
				{
					OFFSET 0.082453 -29.568058 -0.264600
					CHANNELS 3 Xrotation Yrotation Zrotation
					JOINT RightToeBase
					{
						OFFSET -3.115300 -8.682800 16.113400
						CHANNELS 3 Xrotation Yrotation Zrotation
						End Site
						{
							OFFSET 0.000000 18.567114 0.000000
						}
					}
				}
			}
			JOINT Right_ShortSleeve
			{
				OFFSET -0.265923 -10.480953 1.153800
				CHANNELS 3 Xrotation Yrotation Zrotation
				End Site
				{
					OFFSET -1.725766 19.823910 0.000000
				}
			}
		}
	}
	JOINT Spine
	{
		OFFSET 0.000000 13.368103 0.470500
		CHANNELS 3 Xrotation Yrotation Zrotation
		JOINT Spine1
		{
			OFFSET 0.147000 13.837402 0.538800
			CHANNELS 3 Xrotation Yrotation Zrotation
			JOINT Spine2
			{
				OFFSET 0.168000 16.242897 -1.435500
				CHANNELS 3 Xrotation Yrotation Zrotation
				JOINT Neck
				{
					OFFSET 0.217200 18.631500 -1.679100
					CHANNELS 3 Xrotation Yrotation Zrotation
					JOINT Head
					{
						OFFSET 0.000000 6.599396 1.385900
						CHANNELS 3 Xrotation Yrotation Zrotation
						JOINT Hat
						{
							OFFSET -0.532200 27.220596 -10.096100
							CHANNELS 3 Xrotation Yrotation Zrotation
							End Site
							{
								OFFSET 0.000000 22.029861 0.000000
							}
						}
						JOINT HairD
						{
							OFFSET -10.777400 17.437393 -1.325900
							CHANNELS 3 Xrotation Yrotation Zrotation
							JOINT HairD1
							{
								OFFSET -3.290299 -11.051193 1.062200
								CHANNELS 3 Xrotation Yrotation Zrotation
								End Site
								{
									OFFSET 0.000000 11.579437 0.000000
								}
							}
						}
						JOINT HairB
						{
							OFFSET -10.777400 17.437393 1.467900
							CHANNELS 3 Xrotation Yrotation Zrotation
							JOINT HairB1
							{
								OFFSET -1.561200 -12.956299 3.590200
								CHANNELS 3 Xrotation Yrotation Zrotation
								End Site
								{
									OFFSET 0.000000 13.534866 0.000000
								}
							}
						}
						JOINT HairA
						{
							OFFSET 9.713100 17.437393 1.467900
							CHANNELS 3 Xrotation Yrotation Zrotation
							JOINT HairA1
							{
								OFFSET 1.561200 -12.956299 3.590200
								CHANNELS 3 Xrotation Yrotation Zrotation
								End Site
								{
									OFFSET 0.000000 13.534866 0.000000
								}
							}
						}
						JOINT HairC
						{
							OFFSET 9.713100 17.437393 -1.325900
							CHANNELS 3 Xrotation Yrotation Zrotation
							JOINT HairC1
							{
								OFFSET 3.290300 -11.051193 1.062200
								CHANNELS 3 Xrotation Yrotation Zrotation
								End Site
								{
									OFFSET 0.000000 11.579437 0.000000
								}
							}
						}
					}
				}
				JOINT LeftShoulder
				{
					OFFSET 5.101800 15.108002 -2.763700
					CHANNELS 3 Xrotation Yrotation Zrotation
					JOINT LeftArm
					{
						OFFSET 9.825497 2.506317 -1.597400
						CHANNELS 3 Xrotation Yrotation Zrotation
						JOINT LeftForeArm
						{
							OFFSET 21.966244 0.000000 0.000000
							CHANNELS 3 Xrotation Yrotation Zrotation
							JOINT LeftHand
							{
								OFFSET 33.879036 0.000000 0.000000
								CHANNELS 3 Xrotation Yrotation Zrotation
								JOINT LeftHandThumb1
								{
									OFFSET 6.715286 -2.359680 3.363841
									CHANNELS 3 Xrotation Yrotation Zrotation
									JOINT LeftHandThumb2
									{
										OFFSET 2.507072 -1.447464 1.447461
										CHANNELS 3 Xrotation Yrotation Zrotation
										JOINT LeftHandThumb3
										{
											OFFSET 2.898338 -1.673355 1.673357
											CHANNELS 3 Xrotation Yrotation Zrotation
											End Site
											{
												OFFSET -0.295959 3.727692 -0.131651
											}
										}
									}
								}
								JOINT LeftHandIndex1
								{
									OFFSET 14.190811 -0.254547 3.840278
									CHANNELS 3 Xrotation Yrotation Zrotation
									JOINT LeftHandIndex2
									{
										OFFSET 3.551727 0.000000 -0.000000
										CHANNELS 3 Xrotation Yrotation Zrotation
										JOINT LeftHandIndex3
										{
											OFFSET 2.894196 0.000000 0.000000
											CHANNELS 3 Xrotation Yrotation Zrotation
											End Site
											{
												OFFSET -1.000603 2.690872 0.366626
											}
										}
									}
								}
								JOINT LeftHandMiddle1
								{
									OFFSET 13.776489 0.000000 0.000000
									CHANNELS 3 Xrotation Yrotation Zrotation
									JOINT LeftHandMiddle2
									{
										OFFSET 3.438232 0.000000 0.000000
										CHANNELS 3 Xrotation Yrotation Zrotation
										JOINT LeftHandMiddle3
										{
											OFFSET 3.691551 0.000000 0.000000
											CHANNELS 3 Xrotation Yrotation Zrotation
											End Site
											{
												OFFSET -1.082298 3.499527 0.457670
											}
										}
									}
								}
								JOINT LeftHandRing1
								{
									OFFSET 13.966164 -0.268127 -3.067488
									CHANNELS 3 Xrotation Yrotation Zrotation
									JOINT LeftHandRing2
									{
										OFFSET 3.162567 0.000000 0.000000
										CHANNELS 3 Xrotation Yrotation Zrotation
										JOINT LeftHandRing3
										{
											OFFSET 3.324348 0.000000 0.000000
											CHANNELS 3 Xrotation Yrotation Zrotation
											End Site
											{
												OFFSET -0.861900 3.184998 0.405154
											}
										}
									}
								}
								JOINT LeftHandPinky1
								{
									OFFSET 13.131393 -0.168503 -5.746925
									CHANNELS 3 Xrotation Yrotation Zrotation
									JOINT LeftHandPinky2
									{
										OFFSET 2.849182 0.000000 0.000000
										CHANNELS 3 Xrotation Yrotation Zrotation
										JOINT LeftHandPinky3
										{
											OFFSET 2.805038 0.000000 0.000000
											CHANNELS 3 Xrotation Yrotation Zrotation
											End Site
											{
												OFFSET -0.882500 2.642609 0.325652
											}
										}
									}
								}
							}
							JOINT Left_Sleeve
							{
								OFFSET 6.592125 -0.646545 0.805568
								CHANNELS 3 Xrotation Yrotation Zrotation
								End Site
								{
									OFFSET -0.000179 20.275787 -0.000000
								}
							}
						}
					}
				}
				JOINT RightShoulder
				{
					OFFSET -5.731700 15.108002 -2.763700
					CHANNELS 3 Xrotation Yrotation Zrotation
					JOINT RightArm
					{
						OFFSET -9.825497 2.506317 -1.597400
						CHANNELS 3 Xrotation Yrotation Zrotation
						JOINT RightForeArm
						{
							OFFSET -21.966242 0.000000 0.000000
							CHANNELS 3 Xrotation Yrotation Zrotation
							JOINT RightHand
							{
								OFFSET -33.879032 0.000000 0.000000
								CHANNELS 3 Xrotation Yrotation Zrotation
								JOINT RightHandThumb1
								{
									OFFSET -6.715286 -2.359680 3.363841
									CHANNELS 3 Xrotation Yrotation Zrotation
									JOINT RightHandThumb2
									{
										OFFSET -2.507072 -1.447464 1.447461
										CHANNELS 3 Xrotation Yrotation Zrotation
										JOINT RightHandThumb3
										{
											OFFSET -2.898338 -1.673355 1.673357
											CHANNELS 3 Xrotation Yrotation Zrotation
											End Site
											{
												OFFSET 0.295959 3.727692 -0.131651
											}
										}
									}
								}
								JOINT RightHandIndex1
								{
									OFFSET -14.190811 -0.254547 3.840278
									CHANNELS 3 Xrotation Yrotation Zrotation
									JOINT RightHandIndex2
									{
										OFFSET -3.551727 0.000000 -0.000000
										CHANNELS 3 Xrotation Yrotation Zrotation
										JOINT RightHandIndex3
										{
											OFFSET -2.894196 0.000000 0.000000
											CHANNELS 3 Xrotation Yrotation Zrotation
											End Site
											{
												OFFSET 1.000603 2.690872 0.366626
											}
										}
									}
								}
								JOINT RightHandMiddle1
								{
									OFFSET -13.776489 0.000000 0.000000
									CHANNELS 3 Xrotation Yrotation Zrotation
									JOINT RightHandMiddle2
									{
										OFFSET -3.438232 0.000000 0.000000
										CHANNELS 3 Xrotation Yrotation Zrotation
										JOINT RightHandMiddle3
										{
											OFFSET -3.691551 0.000000 0.000000
											CHANNELS 3 Xrotation Yrotation Zrotation
											End Site
											{
												OFFSET 1.082298 3.499527 0.457670
											}
										}
									}
								}
								JOINT RightHandRing1
								{
									OFFSET -13.966164 -0.268127 -3.067488
									CHANNELS 3 Xrotation Yrotation Zrotation
									JOINT RightHandRing2
									{
										OFFSET -3.162567 0.000000 0.000000
										CHANNELS 3 Xrotation Yrotation Zrotation
										JOINT RightHandRing3
										{
											OFFSET -3.324348 0.000000 0.000000
											CHANNELS 3 Xrotation Yrotation Zrotation
											End Site
											{
												OFFSET 0.861900 3.184998 0.405154
											}
										}
									}
								}
								JOINT RightHandPinky1
								{
									OFFSET -13.131393 -0.168503 -5.746925
									CHANNELS 3 Xrotation Yrotation Zrotation
									JOINT RightHandPinky2
									{
										OFFSET -2.849182 0.000000 0.000000
										CHANNELS 3 Xrotation Yrotation Zrotation
										JOINT RightHandPinky3
										{
											OFFSET -2.805038 0.000000 0.000000
											CHANNELS 3 Xrotation Yrotation Zrotation
											End Site
											{
												OFFSET 0.882500 2.642609 0.325652
											}
										}
									}
								}
							}
							JOINT Right_Sleeve
							{
								OFFSET -6.592125 -0.646545 0.805568
								CHANNELS 3 Xrotation Yrotation Zrotation
								End Site
								{
									OFFSET 0.000179 20.275787 -0.000000
								}
							}
						}
					}
				}
				JOINT Bind_Right_JacketString
				{
					OFFSET -3.534800 11.969597 7.200700
					CHANNELS 3 Xrotation Yrotation Zrotation
					JOINT Bind_Right_JacketString1
					{
						OFFSET -0.319900 -6.102600 2.794100
						CHANNELS 3 Xrotation Yrotation Zrotation
						End Site
						{
							OFFSET 0.000000 6.719452 0.000000
						}
					}
				}
				JOINT Bind_Left_JacketString
				{
					OFFSET 2.904800 11.969597 7.200700
					CHANNELS 3 Xrotation Yrotation Zrotation
					JOINT Bind_Left_JacketString1
					{
						OFFSET 0.364800 -5.904503 3.186800
						CHANNELS 3 Xrotation Yrotation Zrotation
						End Site
						{
							OFFSET 0.000000 6.719513 0.000000
						}
					}
				}
				JOINT HairE
				{
					OFFSET 5.915200 17.612701 -11.592200
					CHANNELS 3 Xrotation Yrotation Zrotation
					JOINT HairE1
					{
						OFFSET 0.289200 -7.171898 -1.284500
						CHANNELS 3 Xrotation Yrotation Zrotation
						End Site
						{
							OFFSET 0.000000 7.291756 0.000000
						}
					}
				}
				JOINT HairF
				{
					OFFSET -0.864800 17.612701 -11.592200
					CHANNELS 3 Xrotation Yrotation Zrotation
					JOINT HairF1
					{
						OFFSET 0.000000 -14.087097 -2.127501
						CHANNELS 3 Xrotation Yrotation Zrotation
						End Site
						{
							OFFSET 0.000000 14.246841 0.000000
						}
					}
				}
				JOINT HairG
				{
					OFFSET -8.087700 17.612701 -11.592200
					CHANNELS 3 Xrotation Yrotation Zrotation
					JOINT HairG1
					{
						OFFSET -0.293600 -6.081398 -0.910100
						CHANNELS 3 Xrotation Yrotation Zrotation
						End Site
						{
							OFFSET 0.000000 6.156120 0.000000
						}
					}
				}
			}
		}
	}
	JOINT Pouch
	{
		OFFSET 0.000000 4.394501 10.847300
		CHANNELS 3 Xrotation Yrotation Zrotation
		End Site
		{
			OFFSET 0.000000 21.880577 0.000000
		}
	}
	JOINT Bag
	{
		OFFSET -13.229000 4.813004 -0.593300
		CHANNELS 3 Xrotation Yrotation Zrotation
		End Site
		{
			OFFSET 0.000000 21.880577 0.000000
		}
	}
	JOINT OccupyGuyFacialAnim_Joint
	{
		OFFSET 1.000000 -70.206398 -1.655000
		CHANNELS 3 Xrotation Yrotation Zrotation
		End Site
		{
			OFFSET 0.000000 21.880577 0.000000
		}
	}
}
MOTION
Frames: 4
Frame Time: 0.033333
-2.166964 55.038460 39.313969 9.007813 43.741290 -12.689728 0.000000 0.000001 0.000000 -45.615896 -4.386674 48.345421 84.576040 -14.158753 -1.359290 -18.802440 4.639734 -17.821987 0.000001 -0.000001 -0.000000 -0.000000 0.000001 -0.000001 -69.660881 0.209142 13.283852 80.971223 28.057020 -13.927479 -11.005826 -3.897267 -0.952201 -0.000000 0.000000 0.000000 -0.000000 0.000001 0.000001 37.562659 -26.628297 -14.737067 2.646979 -6.110373 -2.376190 1.928981 -6.302187 -1.380506 -9.979958 0.780623 13.575424 14.032043 4.919169 -4.302004 0.000000 0.000001 0.000002 0.000000 0.000001 0.000002 0.000000 0.000001 0.000003 0.000000 0.000001 0.000001 0.000002 0.000003 -0.000000 0.000000 0.000001 0.000001 0.000002 0.000003 -0.000000 0.000000 0.000001 0.000002 0.000000 0.000001 0.000002 35.234955 -38.117455 57.359567 -30.550336 -11.212520 -53.241495 -2.376231 -86.747856 0.661111 1.367850 69.127149 -38.121475 -7.471924 1.860676 -7.166923 30.987008 27.310525 -4.510883 -0.000000 0.000005 0.000000 -4.707366 11.366718 -75.214446 -0.816394 3.073973 -46.874639 -0.000001 -0.000001 -0.000000 1.623372 16.580957 -84.691286 0.018016 0.022034 -72.884853 0.000003 0.000003 -0.000001 -6.443168 23.132613 -76.210172 0.012882 0.975923 -51.002993 0.000001 0.000001 -0.000002 -17.098965 22.128952 -43.123171 0.019737 0.027034 -78.662879 -0.000004 0.000002 -0.000000 0.000000 -0.000001 -0.000001 -21.737258 24.008234 -5.946787 -1.365362 -5.323732 88.100226 -10.733147 86.408341 11.357198 -85.019995 24.574124 -78.245226 9.347180 2.810531 -11.364528 16.169061 -43.265990 15.843565 -0.000001 0.000001 -0.000003 17.076788 -0.396558 31.924352 -0.204429 -0.284189 112.811564 -0.000002 -0.000000 0.000000 9.205489 -5.035906 102.738107 0.014980 -0.019212 61.018506 0.000001 0.000001 -0.000001 5.569125 -8.935203 107.329101 0.547995 -0.005789 41.263714 -0.000000 -0.000003 0.000002 6.511258 -17.148261 98.228031 0.007397 -0.015750 43.845747 0.000004 0.000000 0.000002 0.000001 -0.000003 -0.000001 0.000000 -0.000001 -0.000001 -0.000000 0.000001 0.000001 0.000000 -0.000001 -0.000000 0.000000 -0.000001 -0.000000 0.000000 -0.000001 -0.000001 -0.000000 0.000001 0.000002 0.000000 -0.000001 -0.000000 0.000000 -0.000001 -0.000000 0.000000 -0.000001 -0.000001 -0.000000 0.000001 0.000002 0.000000 0.000001 0.000000 0.000000 0.000001 0.000000 0.000000 0.000001 0.000000 
-0.435325 56.168625 36.558903 7.537589 41.388443 -11.897460 0.000001 -0.000001 -0.000001 -45.069478 -1.515039 47.072769 84.914175 -14.699303 -2.004515 -19.964411 4.467022 -16.831217 0.000000 0.000001 -0.000001 -0.000002 -0.000001 0.000001 -66.720232 1.952219 11.569225 76.292557 29.583049 -13.978563 -10.139765 -4.565217 0.494910 -0.000000 -0.000001 0.000001 -0.000001 0.000002 0.000003 34.950464 -29.171475 -13.289607 3.432448 -6.562422 -1.107858 2.840422 -6.710765 0.056937 -6.415029 1.330707 14.369352 10.166784 8.748788 -5.456791 -0.000003 0.000001 0.000002 -0.000003 0.000001 0.000002 -0.000003 0.000001 0.000003 -0.000003 0.000001 -0.000000 -0.000003 -0.000000 -0.000004 -0.000003 0.000001 -0.000000 -0.000003 -0.000000 -0.000004 -0.000003 0.000001 0.000002 -0.000003 0.000001 0.000002 33.855076 -45.901354 54.985185 -32.999444 -13.504034 -59.147457 -1.140265 -76.264608 -6.133938 10.319174 52.038924 -39.758558 -7.471925 1.860681 -7.166922 30.987008 27.310522 -4.510887 0.000001 -0.000002 -0.000001 -4.707368 11.366718 -75.214453 -0.816399 3.073979 -46.874639 0.000000 -0.000002 -0.000002 1.623373 16.580959 -84.691279 0.018016 0.022031 -72.884853 -0.000001 0.000002 -0.000003 -6.443160 23.132628 -76.210165 0.012880 0.975924 -51.002986 0.000003 0.000001 -0.000001 -17.098982 22.128959 -43.123171 0.019738 0.027041 -78.662872 -0.000001 -0.000001 0.000001 0.000000 0.000001 0.000002 -20.288635 19.770730 -8.601661 13.270416 -10.483662 98.354984 -20.068629 87.477101 23.143732 -84.495177 40.804192 -61.612445 9.347181 2.810534 -11.364531 16.169066 -43.265987 15.843571 0.000000 -0.000003 -0.000000 17.076784 -0.396558 31.924352 -0.204430 -0.284191 112.811564 -0.000001 -0.000001 0.000005 9.205491 -5.035906 102.738107 0.014978 -0.019215 61.018513 -0.000000 -0.000002 -0.000001 5.569125 -8.935199 107.329101 0.547993 -0.005789 41.263714 -0.000001 0.000000 0.000002 6.511257 -17.148252 98.228031 0.007401 -0.015750 43.845744 -0.000002 0.000000 -0.000001 0.000001 0.000001 0.000000 -0.000000 0.000000 -0.000004 -0.000001 -0.000002 -0.000002 -0.000000 0.000000 -0.000002 -0.000000 0.000000 -0.000002 -0.000000 0.000000 -0.000004 -0.000001 -0.000002 -0.000002 -0.000000 0.000000 -0.000002 -0.000000 0.000000 -0.000002 -0.000000 0.000000 -0.000004 -0.000001 -0.000002 -0.000002 0.000001 -0.000001 -0.000001 0.000001 -0.000001 -0.000001 0.000001 -0.000001 -0.000001 
1.312561 57.662910 33.480995 5.822939 37.819297 -10.761968 0.000001 -0.000001 -0.000000 -44.010402 3.187659 44.365429 84.545939 -11.770608 -1.861043 -22.159978 4.361947 -15.333490 -0.000000 0.000000 0.000000 0.000002 -0.000003 0.000000 -62.891385 1.149425 8.227063 69.576794 34.849531 -14.289148 -6.105516 -4.148715 2.179510 -0.000001 -0.000000 0.000000 -0.000003 -0.000001 -0.000002 31.004343 -31.128737 -12.439092 4.900187 -7.118696 0.162432 4.350449 -7.124346 1.309668 -2.567669 2.491946 13.683727 6.583273 12.276463 -5.379399 -0.000001 0.000002 0.000001 -0.000001 0.000002 0.000001 -0.000001 0.000002 0.000000 -0.000001 0.000002 -0.000000 -0.000002 -0.000002 -0.000001 -0.000001 0.000002 -0.000000 -0.000002 -0.000002 -0.000001 -0.000001 0.000002 0.000001 -0.000001 0.000002 0.000001 29.506308 -53.117118 49.074540 -37.062509 -16.838793 -59.925846 -0.423900 -63.468078 -14.451886 13.892096 33.166801 -36.405318 -7.471925 1.860685 -7.166921 30.987008 27.310523 -4.510882 -0.000000 0.000001 -0.000001 -4.707368 11.366724 -75.214453 -0.816397 3.073974 -46.874639 0.000002 -0.000000 -0.000000 1.623370 16.580960 -84.691286 0.018017 0.022030 -72.884853 0.000005 -0.000000 0.000001 -6.443168 23.132621 -76.210172 0.012880 0.975928 -51.002996 0.000003 0.000000 -0.000002 -17.098979 22.128939 -43.123171 0.019717 0.027048 -78.662872 0.000002 0.000000 0.000001 0.000003 0.000001 -0.000000 -18.217487 16.966026 -11.935937 18.971984 -6.619704 102.552196 0.231026 83.356414 -5.370763 -100.328615 48.290202 -32.683408 9.347181 2.810534 -11.364531 16.169066 -43.265984 15.843571 0.000001 0.000001 0.000000 17.076786 -0.396554 31.924352 -0.204429 -0.284192 112.811564 -0.000002 -0.000003 -0.000002 9.205488 -5.035901 102.738107 0.014975 -0.019221 61.018506 0.000003 0.000001 -0.000002 5.569126 -8.935198 107.329101 0.547990 -0.005791 41.263714 0.000002 0.000001 -0.000001 6.511255 -17.148249 98.228031 0.007395 -0.015751 43.845744 0.000001 -0.000001 -0.000001 0.000002 0.000002 -0.000001 -0.000000 0.000000 0.000002 -0.000001 -0.000000 0.000002 -0.000000 0.000000 0.000001 -0.000000 0.000000 0.000001 -0.000000 0.000000 0.000002 -0.000001 -0.000000 0.000003 -0.000000 0.000000 0.000001 -0.000000 0.000000 0.000001 -0.000000 0.000000 0.000002 -0.000001 -0.000000 0.000003 0.000001 -0.000001 -0.000000 0.000001 -0.000001 -0.000000 0.000001 -0.000001 -0.000000 
3.048859 59.385086 30.170471 4.024355 32.979179 -9.259576 -0.000000 -0.000002 0.000000 -40.946827 7.841843 38.551070 82.784235 -5.066217 -1.219631 -24.833671 4.503880 -15.182512 -0.000000 -0.000000 -0.000000 -0.000001 -0.000003 -0.000000 -58.372333 -0.952319 3.421495 58.202077 42.515206 -11.693157 1.334385 -2.192998 4.609261 -0.000001 0.000000 0.000000 0.000002 0.000003 0.000002 26.829529 -32.044106 -11.530564 6.553464 -7.727826 1.144418 5.950154 -7.605341 2.203863 0.595784 4.084884 11.661886 4.297815 14.488402 -4.939589 0.000002 0.000000 -0.000001 0.000002 0.000000 -0.000001 0.000002 0.000000 0.000000 0.000002 0.000000 -0.000001 0.000000 -0.000000 -0.000001 0.000002 0.000000 -0.000001 0.000000 -0.000000 -0.000001 0.000002 0.000000 -0.000001 0.000002 0.000000 -0.000001 20.180977 -57.095860 38.983540 -42.563451 -21.595456 -59.100780 0.686339 -52.328446 -22.526497 16.014043 17.163485 -30.163044 -7.471927 1.860682 -7.166923 30.987018 27.310528 -4.510886 0.000002 -0.000001 0.000002 -4.707371 11.366721 -75.214453 -0.816395 3.073983 -46.874639 0.000002 0.000000 -0.000002 1.623373 16.580962 -84.691286 0.018018 0.022031 -72.884853 0.000004 0.000000 0.000002 -6.443182 23.132628 -76.210158 0.012884 0.975927 -51.002986 0.000003 -0.000001 -0.000002 -17.098988 22.128964 -43.123175 0.019719 0.027022 -78.662852 -0.000003 0.000001 -0.000001 -0.000002 -0.000000 -0.000000 -16.170802 14.909109 -15.223638 17.754313 -4.561431 104.422767 8.636084 78.609228 -22.855193 -114.975361 46.206991 -6.696100 9.347181 2.810533 -11.364530 16.169069 -43.265987 15.843573 -0.000000 -0.000003 -0.000000 17.076784 -0.396557 31.924349 -0.204434 -0.284189 112.811571 0.000001 0.000001 -0.000001 9.205487 -5.035906 102.738107 0.014978 -0.019211 61.018506 0.000000 0.000001 -0.000001 5.569123 -8.935202 107.329101 0.547991 -0.005787 41.263710 0.000002 -0.000001 -0.000004 6.511256 -17.148252 98.228031 0.007398 -0.015746 43.845747 -0.000000 0.000001 0.000001 0.000001 -0.000001 -0.000002 -0.000003 -0.000002 -0.000003 -0.000003 0.000001 -0.000002 -0.000003 -0.000002 -0.000001 -0.000003 -0.000002 -0.000001 -0.000003 -0.000002 -0.000003 -0.000003 0.000001 -0.000002 -0.000003 -0.000002 -0.000001 -0.000003 -0.000002 -0.000001 -0.000003 -0.000002 -0.000003 -0.000003 0.000001 -0.000002 -0.000000 -0.000002 0.000000 -0.000000 -0.000002 0.000000 -0.000000 -0.000002 0.000000 
